<?xml version="1.0" standalone="no"?>
<!DOCTYPE svg PUBLIC "-//W3C//DTD SVG 20010904//EN"
 "http://www.w3.org/TR/2001/REC-SVG-20010904/DTD/svg10.dtd">
<svg version="1.0" xmlns="http://www.w3.org/2000/svg"
 width="862.000000pt" height="862.000000pt" viewBox="0 0 862.000000 862.000000"
 preserveAspectRatio="xMidYMid meet">
<metadata>
Created by potrace 1.11, written by Peter Selinger 2001-2013
</metadata>
<g transform="translate(0.000000,862.000000) scale(0.100000,-0.100000)"
fill="#000000" stroke="none">
<path d="M3655 7050 l-689 -689 551 -558 c304 -307 614 -620 690 -695 l138
-138 695 695 695 695 -340 338 c-187 186 -500 496 -695 689 l-356 352 -689
-689z"/>
<path d="M1625 5020 l-690 -690 693 -693 692 -692 692 692 693 693 -690 690
c-379 379 -692 690 -695 690 -3 0 -316 -311 -695 -690z"/>
<path d="M5678 5023 l-686 -688 689 -695 689 -695 692 692 693 693 -690 690
c-379 379 -692 690 -695 690 -3 0 -314 -309 -692 -687z"/>
<path d="M3652 2997 c-375 -376 -682 -687 -682 -692 0 -6 309 -319 687 -697
l688 -688 692 692 693 693 -687 687 c-379 379 -693 688 -698 688 -6 0 -317
-307 -693 -683z"/>
</g>
</svg>
